<?xml version="1.0" encoding="utf-8"?>
<!-- Generator: Adobe Illustrator 23.0.1, SVG Export Plug-In . SVG Version: 6.00 Build 0)  -->
<svg version="1.1" id="Layer_1_xA0_Image_1_" xmlns="http://www.w3.org/2000/svg" xmlns:xlink="http://www.w3.org/1999/xlink"
	 x="0px" y="0px" viewBox="0 0 179.28 156" style="enable-background:new 0 0 179.28 156;" xml:space="preserve">
<style type="text/css">
	.st0{fill:#76FE03;}
</style>
<g>
	<path class="st0" d="M90.36,0.96c1.28,2.31,2.53,4.63,3.84,6.92c3.13,5.45,6.29,10.88,9.43,16.32c2.83,4.9,5.65,9.81,8.47,14.72
		c3.11,5.42,6.2,10.84,9.32,16.25c2.84,4.94,5.71,9.86,8.57,14.79c4.7,8.1,9.43,16.19,14.11,24.31c4.66,8.08,9.27,16.19,13.94,24.27
		c5.17,8.96,10.39,17.89,15.58,26.83c2.01,3.46,4.01,6.93,6.02,10.4c-0.04,0.16-0.06,0.45-0.12,0.46c-0.31,0.05-0.64,0.02-0.96,0.02
		c-59.4,0-118.8,0-178.2,0c1.1-2.02,2.16-4.05,3.29-6.04c2.88-5.05,5.8-10.08,8.71-15.11c2.82-4.86,5.66-9.71,8.47-14.57
		c2.87-4.97,5.7-9.95,8.57-14.92c2.81-4.87,5.65-9.71,8.45-14.58c2.55-4.43,5.08-8.87,7.63-13.3c3.12-5.41,6.27-10.8,9.39-16.2
		c2.56-4.43,5.09-8.86,7.64-13.29c3.1-5.38,6.19-10.75,9.3-16.12c2.87-4.97,5.76-9.92,8.62-14.89c2.69-4.66,5.37-9.33,8.04-14
		c0.42-0.73,0.77-1.5,1.15-2.25C89.88,0.96,90.12,0.96,90.36,0.96z M11.32,149.93c52.5,0,104.85,0,157.34,0
		C158.4,132.15,148.2,114.47,138,96.78c-12.63,14.87-27.92,24.63-48,24.6c-20.07-0.03-35.45-9.64-47.96-24.7
		C31.81,114.42,21.6,132.12,11.32,149.93z M122.32,69.66c-10.75-18.64-21.5-37.28-32.31-56.04C79.46,31.9,68.96,50.09,58.23,68.67
		C80.07,56.63,101.23,57.76,122.32,69.66z M115.08,90.86c0-0.64,0.03-1.28-0.01-1.92c-0.04-0.62-0.14-1.25-0.23-1.87
		c-0.86-6.17-3.86-11.21-8.71-14.93c-6.7-5.15-14.38-6.6-22.58-4.66C77.82,68.83,73,71.8,69.47,76.64
		c-3.98,5.45-5.4,11.53-4.31,18.19c1.05,6.38,4.19,11.52,9.4,15.33c5.81,4.25,12.34,5.62,19.44,4.58c4.96-0.72,9.44-2.6,13.14-5.93
		C112.43,104.05,115.19,98.06,115.08,90.86z M66.06,73.53c-0.9-0.99-1.68-0.93-2.48,0.14c-0.32,0.43-0.87,0.67-1.26,1.06
		c-4.76,4.67-9.52,9.33-14.25,14.03c-1.16,1.15-1.08,2.89,0.09,4.03c5.34,5.27,10.69,10.54,16.04,15.8
		c0.16,0.16,0.36,0.27,0.55,0.42c0.52-0.62,1.31-0.82,0.59-2c-3.53-5.81-5.57-12.01-4.77-18.99C61.17,82.68,63.21,77.97,66.06,73.53
		z M114.04,73.44c1.05,2.04,2.19,3.99,3.08,6.05c2.09,4.8,2.96,9.84,2.23,15.03c-0.64,4.6-2.3,8.88-4.86,12.79
		c-0.15,0.23-0.06,0.9,0.12,1c0.31,0.17,0.94,0.22,1.16,0.02c2.75-2.52,5.49-5.06,8.17-7.66c2.64-2.56,5.21-5.19,7.81-7.79
		c1.46-1.46,1.46-2.89-0.05-4.37c-3.04-2.99-6.1-5.96-9.16-8.92c-2.43-2.35-4.89-4.68-7.34-7.03
		C114.8,72.87,114.37,73.19,114.04,73.44z"/>
	<path class="st0" d="M90.02,76.08c6.91-0.45,13.99,5.1,15.35,11.76c0.92,4.51-0.13,8.53-2.99,12.11
		c-3.25,4.06-7.63,5.94-12.65,5.83c-7.33-0.16-13.48-4.62-15.13-11.88c-1.48-6.51,1.75-12.64,7.55-15.86
		C84.78,76.57,86.84,75.91,90.02,76.08z M77.1,89.2c0.03,5.74,1.77,8.87,4.92,11.1c4.84,3.43,9.91,3.53,15.08,0.62
		c5.07-2.86,7.22-9.72,4.71-14.95c-2.04-4.24-7.44-7.91-13.67-7.04C82.17,79.78,76.96,84.66,77.1,89.2z"/>
	<path class="st0" d="M90.06,90.67c1.42,1.81,2.77,3.54,4.13,5.27c-0.93,1.91-2.55,3.21-4.58,3.07c-2.7-0.19-4.65-1.92-5.77-4.4
		c-1.89-4.16-0.59-8.4,3.18-11.01c2.56-1.77,5.37-0.59,7.01,1.58c0.13,0.18,0.04,0.69-0.13,0.9C92.66,87.61,91.38,89.1,90.06,90.67z
		"/>
</g>
</svg>
