<svg version="1" xmlns="http://www.w3.org/2000/svg" width="954.667" height="954.667" viewBox="0 0 716.000000 716.000000"><path d="M355.7 54.2c-17.5 31-29.9 52.5-63 109.8-21.4 37.1-44 76.3-50.2 87-6.2 10.7-27.3 47.4-47 81.5s-49.3 85.4-65.8 114C99.8 498.3 84 525.6 39 603.5c-23.7 41-37 64.7-37 65.9 0 .3 160.6.6 357 .6h357v-2.3c0-1.2-18.3-33.7-40.6-72.2C653 557 621.7 502.8 605.7 475c-15.9-27.8-50-86.7-75.7-131-25.7-44.3-52.2-90.2-59-102-6.7-11.8-31.1-54.1-54-94-23-39.9-44.9-78.1-48.7-85-3.9-6.9-7.7-12.6-8.6-12.8-1-.2-2.5 1.3-4 4zm67.7 159C457.8 273 486 322.1 486 322.5c0 .3-4.9-1.9-10.8-4.9-32.6-16.3-62.1-25.5-93.8-29.2-25.6-3-57.2-.8-82.6 5.7-18.1 4.6-43.8 14.5-58.5 22.6-3.7 2-6.4 3.3-6.1 2.7.3-.5 27.5-47.5 60.3-104.4 32.9-56.9 60.9-105.4 62.3-107.8 1.3-2.4 2.8-4 3.2-3.5.4.4 28.9 49.7 63.4 109.5zm-44.7 102.3c32.2 6.1 59.1 26.3 71.8 53.9 6.3 13.5 7.9 22.1 7.9 40.6 0 17.6-.8 22.3-6.1 36.4-5.9 15.8-23.3 35.9-38.9 45-25.2 14.8-59.5 18.5-86.6 9.6-10.8-3.6-18.3-7.4-27.3-13.8-24-17-37.4-41-39.4-70.6-1.3-19.1 1.1-31.7 9-48.1 16.5-34.2 49.6-54 91-54.4 5.9-.1 14.3.6 18.6 1.4zm-117.3 23.8c1.8 1.3 1.7 1.5-.7 5.3-4.6 7.4-10.7 20.4-13.7 29.2-4.7 14.2-6.3 25.6-5.7 41.2.8 19.5 4.9 33.6 15.7 53.5 3.7 6.9 4.6 9.4 3.9 10.7-.6 1-1.5 1.8-2.1 1.8-.6 0-16-14.7-34.4-32.6-34.1-33.3-36.5-36.2-34.9-41.6 1.1-3.8 66.6-68.8 69.3-68.8.4 0 1.6.6 2.6 1.3zm231.3 29.6c17.6 17 33 32.2 34.2 33.7 2.9 3.7 3.6 6.9 2.1 10.4-.7 1.6-11.2 12.7-23.4 24.7-30.9 30.4-44.2 42.4-46.1 41.7-.8-.3-1.5-1.1-1.5-1.7 0-.7 2.9-7 6.5-14.2 10.5-21.1 14.3-38.2 13.2-59.5-1-18.3-4.9-31.2-15.4-51.7-5.6-11-6.1-12.3-4.5-13.2.9-.6 2-1.1 2.3-1.1.3 0 15 13.9 32.6 30.9zM179 446.5c31.4 35 69.5 61.1 108.1 73.9 12.8 4.3 23.5 6.9 39.9 9.8 10.2 1.8 54.9 1.8 65 0 33.2-5.8 57.6-14.5 82.4-29.2 22.1-13.2 49.3-35.8 67.1-55.9 4.9-5.5 9.2-10.1 9.5-10.1.5 0 120.1 207 120.8 209.1.2.5-120.9.9-312.2.9-171.9 0-312.6-.3-312.6-.6C47 643.2 167.4 435 168.1 435c.3 0 5.2 5.2 10.9 11.5z"/><path d="M346.5 351c-11.1 2.3-26.1 10.6-34.1 19.1-17.6 18.5-21 43.4-9.3 66.8 19.7 39.4 78.1 44.7 105.9 9.6 11.3-14.2 15.6-29.8 12.7-46.2-4.3-23.7-24-43.7-48.3-48.8-7.4-1.6-20.3-1.8-26.9-.5zm29.4 14.1c7.7 2.6 15.4 7.5 21.2 13.4 9.7 9.8 13.5 19.8 12.6 33.4-1.2 20.9-13 35.7-33.9 42.7-10.3 3.4-22.3 3.8-30.8 1-13.4-4.4-25.5-13.7-30.4-23.4-5.4-10.7-7.5-29.8-4.1-39.1 4.8-13.6 22.6-27 39.8-30 7-1.3 19-.3 25.6 2z"/><path d="M350.3 379c-5.9 2.6-13 10-16.1 16.8-2.3 4.8-2.7 7.1-2.7 14.2 0 7.4.4 9.3 3.1 15 7 14.6 20.6 21.5 31.9 16 4.4-2.1 9.5-7.9 9.5-10.8 0-.7-3.4-5.6-7.5-10.7-4.1-5.2-7.5-9.8-7.5-10.3 0-.4 3.4-4.8 7.5-9.7 4.2-5 7.5-10 7.5-11.2 0-2.8-6.8-8.6-11.9-10.1-5.4-1.7-8.9-1.5-13.8.8z"/></svg>