<?xml version="1.0" encoding="utf-8"?>
<!-- Generator: Adobe Illustrator 23.0.1, SVG Export Plug-In . SVG Version: 6.00 Build 0)  -->
<svg version="1.1" id="Layer_1_xA0_Image_1_" xmlns="http://www.w3.org/2000/svg" xmlns:xlink="http://www.w3.org/1999/xlink"
	 x="0px" y="0px" viewBox="0 0 179.3 156" style="enable-background:new 0 0 179.3 156;" xml:space="preserve">
<style type="text/css">
	.st0{fill:#76FE03;}
</style>
<g>
	<path class="st0" d="M90.4,1c1.3,2.3,2.5,4.6,3.8,6.9c3.1,5.4,6.3,10.9,9.4,16.3c2.8,4.9,5.7,9.8,8.5,14.7
		c3.1,5.4,6.2,10.8,9.3,16.3c2.8,4.9,5.7,9.9,8.6,14.8c4.7,8.1,9.4,16.2,14.1,24.3c4.7,8.1,9.3,16.2,13.9,24.3
		c5.2,9,10.4,17.9,15.6,26.8c2,3.5,4,6.9,6,10.4c0,0.2-0.1,0.4-0.1,0.5c-0.3,0.1-0.6,0-1,0c-59.4,0-118.8,0-178.2,0
		c1.1-2,2.2-4.1,3.3-6c2.9-5.1,5.8-10.1,8.7-15.1c2.8-4.9,5.7-9.7,8.5-14.6c2.9-5,5.7-9.9,8.6-14.9c2.8-4.9,5.7-9.7,8.5-14.6
		c2.5-4.4,5.1-8.9,7.6-13.3c3.1-5.4,6.3-10.8,9.4-16.2c2.6-4.4,5.1-8.9,7.6-13.3c3.1-5.4,6.2-10.8,9.3-16.1c2.9-5,5.8-9.9,8.6-14.9
		c2.7-4.7,5.4-9.3,8-14c0.4-0.7,0.8-1.5,1.2-2.3C89.9,1,90.1,1,90.4,1z M11.3,149.9c52.5,0,104.8,0,157.3,0
		c-10.3-17.8-20.5-35.5-30.7-53.1c-12.6,14.9-27.9,24.6-48,24.6c-20.1,0-35.5-9.6-48-24.7C31.8,114.4,21.6,132.1,11.3,149.9z
		 M122.3,69.7C111.6,51,100.8,32.4,90,13.6c-10.5,18.3-21,36.5-31.8,55C80.1,56.6,101.2,57.8,122.3,69.7z M115.1,90.9
		c0-0.6,0-1.3,0-1.9c0-0.6-0.1-1.3-0.2-1.9c-0.9-6.2-3.9-11.2-8.7-14.9c-6.7-5.2-14.4-6.6-22.6-4.7c-5.7,1.4-10.5,4.3-14.1,9.2
		c-4,5.4-5.4,11.5-4.3,18.2c1.1,6.4,4.2,11.5,9.4,15.3c5.8,4.3,12.3,5.6,19.4,4.6c5-0.7,9.4-2.6,13.1-5.9
		C112.4,104.1,115.2,98.1,115.1,90.9z M66.1,73.5c-0.9-1-1.7-0.9-2.5,0.1c-0.3,0.4-0.9,0.7-1.3,1.1c-4.8,4.7-9.5,9.3-14.3,14
		c-1.2,1.2-1.1,2.9,0.1,4c5.3,5.3,10.7,10.5,16,15.8c0.2,0.2,0.4,0.3,0.6,0.4c0.5-0.6,1.3-0.8,0.6-2c-3.5-5.8-5.6-12-4.8-19
		C61.2,82.7,63.2,78,66.1,73.5z M114,73.4c1.1,2,2.2,4,3.1,6.1c2.1,4.8,3,9.8,2.2,15c-0.6,4.6-2.3,8.9-4.9,12.8
		c-0.2,0.2-0.1,0.9,0.1,1c0.3,0.2,0.9,0.2,1.2,0c2.8-2.5,5.5-5.1,8.2-7.7c2.6-2.6,5.2-5.2,7.8-7.8c1.5-1.5,1.5-2.9-0.1-4.4
		c-3-3-6.1-6-9.2-8.9c-2.4-2.3-4.9-4.7-7.3-7C114.8,72.9,114.4,73.2,114,73.4z"/>
	<path class="st0" d="M90,76.1c6.9-0.4,14,5.1,15.3,11.8c0.9,4.5-0.1,8.5-3,12.1c-3.3,4.1-7.6,5.9-12.7,5.8
		c-7.3-0.2-13.5-4.6-15.1-11.9c-1.5-6.5,1.8-12.6,7.6-15.9C84.8,76.6,86.8,75.9,90,76.1z M77.1,89.2c0,5.7,1.8,8.9,4.9,11.1
		c4.8,3.4,9.9,3.5,15.1,0.6c5.1-2.9,7.2-9.7,4.7-14.9c-2-4.2-7.4-7.9-13.7-7C82.2,79.8,77,84.7,77.1,89.2z"/>
	<path class="st0" d="M90.1,90.7c1.4,1.8,2.8,3.5,4.1,5.3c-0.9,1.9-2.6,3.2-4.6,3.1c-2.7-0.2-4.7-1.9-5.8-4.4
		c-1.9-4.2-0.6-8.4,3.2-11c2.6-1.8,5.4-0.6,7,1.6c0.1,0.2,0,0.7-0.1,0.9C92.7,87.6,91.4,89.1,90.1,90.7z"/>
	<ellipse class="st0" cx="89.6" cy="90.9" rx="6.6" ry="8.1"/>
</g>
</svg>
